{
  "accessors": [
    {
      "bufferView": 2,
      "componentType": 5126,
      "count": 65532,
      "max": [
        0.8977569937705994,
        0.9982439875602722,
        0.15923799574375153
      ],
      "min": [
        -0.8972020149230957,
        -0.9806749820709229,
        -0.10872499644756317
      ],
      "type": "VEC3"
    },
    {
      "bufferView": 2,
      "byteOffset": 786384,
      "componentType": 5126,
      "count": 65532,
      "max": [
        0.9999475479125977,
        0.9999427199363708,
        1.0
      ],
      "min": [
        -0.9999575614929199,
        -0.9998899102210999,
        -0.9683846235275269
      ],
      "type": "VEC3"
    },
    {
      "bufferView": 3,
      "componentType": 5126,
      "count": 65532,
      "max": [
        0.9999978542327881,
        0.999997079372406,
        0.9999994039535522,
        1.0
      ],
      "min": [
        -0.9999794363975525,
        -0.9999870657920837,
        -0.9999997019767761,
        -1.0
      ],
      "type": "VEC4"
    },
    {
      "bufferView": 1,
      "componentType": 5126,
      "count": 65532,
      "max": [
        0.994140625,
        1.0
      ],
      "min": [
        0.0,
        0.1923828125
      ],
      "type": "VEC2"
    },
    {
      "bufferView": 1,
      "byteOffset": 524256,
      "componentType": 5126,
      "count": 65532,
      "max": [
        0.994140625,
        1.0
      ],
      "min": [
        0.0,
        0.1923828125
      ],
      "type": "VEC2"
    },
    {
      "bufferView": 1,
      "byteOffset": 1048512,
      "componentType": 5126,
      "count": 65532,
      "max": [
        0.994140625,
        1.0
      ],
      "min": [
        0.0,
        0.1923828125
      ],
      "type": "VEC2"
    },
    {
      "bufferView": 1,
      "byteOffset": 1572768,
      "componentType": 5126,
      "count": 65532,
      "max": [
        0.994140625,
        1.0
      ],
      "min": [
        0.0,
        0.1923828125
      ],
      "type": "VEC2"
    },
    {
      "bufferView": 0,
      "componentType": 5125,
      "count": 339225,
      "type": "SCALAR"
    },
    {
      "bufferView": 2,
      "byteOffset": 1572768,
      "componentType": 5126,
      "count": 65532,
      "max": [
        0.9160599708557129,
        0.9979850053787231,
        0.06741300225257874
      ],
      "min": [
        -0.9197419881820679,
        -0.9989709854125977,
        -0.14886100590229034
      ],
      "type": "VEC3"
    },
    {
      "bufferView": 2,
      "byteOffset": 2359152,
      "componentType": 5126,
      "count": 65532,
      "max": [
        0.9999759793281555,
        0.9999995827674866,
        0.997556746006012
      ],
      "min": [
        -0.9999743700027466,
        -0.999995768070221,
        -1.0
      ],
      "type": "VEC3"
    },
    {
      "bufferView": 3,
      "byteOffset": 1048512,
      "componentType": 5126,
      "count": 65532,
      "max": [
        0.9999622106552124,
        0.9995582103729248,
        0.999998927116394,
        1.0
      ],
      "min": [
        -0.9997487664222717,
        -0.9999753832817078,
        -0.999999463558197,
        -1.0
      ],
      "type": "VEC4"
    },
    {
      "bufferView": 1,
      "byteOffset": 2097024,
      "componentType": 5126,
      "count": 65532,
      "max": [
        1.0,
        1.0
      ],
      "min": [
        -0.0,
        0.193603515625
      ],
      "type": "VEC2"
    },
    {
      "bufferView": 1,
      "byteOffset": 2621280,
      "componentType": 5126,
      "count": 65532,
      "max": [
        1.0,
        1.0
      ],
      "min": [
        -0.0,
        0.193603515625
      ],
      "type": "VEC2"
    },
    {
      "bufferView": 1,
      "byteOffset": 3145536,
      "componentType": 5126,
      "count": 65532,
      "max": [
        1.0,
        1.0
      ],
      "min": [
        -0.0,
        0.193603515625
      ],
      "type": "VEC2"
    },
    {
      "bufferView": 1,
      "byteOffset": 3669792,
      "componentType": 5126,
      "count": 65532,
      "max": [
        1.0,
        1.0
      ],
      "min": [
        -0.0,
        0.193603515625
      ],
      "type": "VEC2"
    },
    {
      "bufferView": 0,
      "byteOffset": 1356900,
      "componentType": 5125,
      "count": 355953,
      "type": "SCALAR"
    },
    {
      "bufferView": 2,
      "byteOffset": 3145536,
      "componentType": 5126,
      "count": 4956,
      "max": [
        0.9160299897193909,
        0.9982439875602722,
        0.03397500142455101
      ],
      "min": [
        -0.9194989800453186,
        -0.9978539943695068,
        -0.07313299924135208
      ],
      "type": "VEC3"
    },
    {
      "bufferView": 2,
      "byteOffset": 3205008,
      "componentType": 5126,
      "count": 4956,
      "max": [
        0.9999607801437378,
        0.9999923706054688,
        0.997556746006012
      ],
      "min": [
        -0.9998209476470947,
        -0.999995768070221,
        -0.9564014673233032
      ],
      "type": "VEC3"
    },
    {
      "bufferView": 3,
      "byteOffset": 2097024,
      "componentType": 5126,
      "count": 4956,
      "max": [
        0.9999907612800598,
        0.9990004897117615,
        0.9999994039535522,
        1.0
      ],
      "min": [
        -0.9990007877349854,
        -0.9956745505332947,
        -0.9999991059303284,
        -1.0
      ],
      "type": "VEC4"
    },
    {
      "bufferView": 1,
      "byteOffset": 4194048,
      "componentType": 5126,
      "count": 4956,
      "max": [
        0.837890625,
        0.84423828125
      ],
      "min": [
        0.00011897087097167969,
        0.192138671875
      ],
      "type": "VEC2"
    },
    {
      "bufferView": 1,
      "byteOffset": 4233696,
      "componentType": 5126,
      "count": 4956,
      "max": [
        0.837890625,
        0.84423828125
      ],
      "min": [
        0.00011897087097167969,
        0.192138671875
      ],
      "type": "VEC2"
    },
    {
      "bufferView": 1,
      "byteOffset": 4273344,
      "componentType": 5126,
      "count": 4956,
      "max": [
        0.837890625,
        0.84423828125
      ],
      "min": [
        0.00011897087097167969,
        0.192138671875
      ],
      "type": "VEC2"
    },
    {
      "bufferView": 1,
      "byteOffset": 4312992,
      "componentType": 5126,
      "count": 4956,
      "max": [
        0.837890625,
        0.84423828125
      ],
      "min": [
        0.00011897087097167969,
        0.192138671875
      ],
      "type": "VEC2"
    },
    {
      "bufferView": 0,
      "byteOffset": 2780712,
      "componentType": 5125,
      "count": 11250,
      "type": "SCALAR"
    }
  ],
  "asset": {
    "extras": {
      "author": "MAROUANE (https://sketchfab.com/MAROUANE03)",
      "license": "CC-BY-4.0 (http://creativecommons.org/licenses/by/4.0/)",
      "source": "https://sketchfab.com/3d-models/gingerbread-joy-584f89319d33426cb8d4bdeacc4a7887",
      "title": "Gingerbread Joy"
    },
    "generator": "Sketchfab-16.73.0",
    "version": "2.0"
  },
  "bufferViews": [
    {
      "buffer": 0,
      "byteLength": 2825712,
      "name": "floatBufferViews",
      "target": 34963
    },
    {
      "buffer": 0,
      "byteLength": 4352640,
      "byteOffset": 2825712,
      "byteStride": 8,
      "name": "floatBufferViews",
      "target": 34962
    },
    {
      "buffer": 0,
      "byteLength": 3264480,
      "byteOffset": 7178352,
      "byteStride": 12,
      "name": "floatBufferViews",
      "target": 34962
    },
    {
      "buffer": 0,
      "byteLength": 2176320,
      "byteOffset": 10442832,
      "byteStride": 16,
      "name": "floatBufferViews",
      "target": 34962
    }
  ],
  "buffers": [
    {
      "byteLength": 12619152,
      "uri": "scene.bin"
    }
  ],
  "images": [
    {
      "uri": "textures/material_0_baseColor.jpeg"
    },
    {
      "uri": "textures/material_0_metallicRoughness.png"
    },
    {
      "uri": "textures/material_0_normal.jpeg"
    }
  ],
  "materials": [
    {
      "doubleSided": true,
      "name": "material_0",
      "normalTexture": {
        "index": 2,
        "texCoord": 2
      },
      "pbrMetallicRoughness": {
        "baseColorTexture": {
          "index": 0
        },
        "metallicRoughnessTexture": {
          "index": 1,
          "texCoord": 1
        }
      }
    }
  ],
  "meshes": [
    {
      "name": "Object_0",
      "primitives": [
        {
          "attributes": {
            "NORMAL": 1,
            "POSITION": 0,
            "TANGENT": 2,
            "TEXCOORD_0": 3,
            "TEXCOORD_1": 4,
            "TEXCOORD_2": 5,
            "TEXCOORD_3": 6
          },
          "indices": 7,
          "material": 0,
          "mode": 4
        }
      ]
    },
    {
      "name": "Object_1",
      "primitives": [
        {
          "attributes": {
            "NORMAL": 9,
            "POSITION": 8,
            "TANGENT": 10,
            "TEXCOORD_0": 11,
            "TEXCOORD_1": 12,
            "TEXCOORD_2": 13,
            "TEXCOORD_3": 14
          },
          "indices": 15,
          "material": 0,
          "mode": 4
        }
      ]
    },
    {
      "name": "Object_2",
      "primitives": [
        {
          "attributes": {
            "NORMAL": 17,
            "POSITION": 16,
            "TANGENT": 18,
            "TEXCOORD_0": 19,
            "TEXCOORD_1": 20,
            "TEXCOORD_2": 21,
            "TEXCOORD_3": 22
          },
          "indices": 23,
          "material": 0,
          "mode": 4
        }
      ]
    }
  ],
  "nodes": [
    {
      "children": [
        1
      ],
      "matrix": [
        1.0,
        0.0,
        0.0,
        0.0,
        0.0,
        2.220446049250313e-16,
        -1.0,
        0.0,
        0.0,
        1.0,
        2.220446049250313e-16,
        0.0,
        0.0,
        0.0,
        0.0,
        1.0
      ],
      "name": "Sketchfab_model"
    },
    {
      "children": [
        2
      ],
      "name": "root"
    },
    {
      "children": [
        3
      ],
      "matrix": [
        1.0,
        0.0,
        0.0,
        0.0,
        0.0,
        2.220446049250313e-16,
        1.0,
        0.0,
        0.0,
        -1.0,
        2.220446049250313e-16,
        0.0,
        0.0,
        0.0,
        0.0,
        1.0
      ],
      "name": "GLTF_SceneRootNode"
    },
    {
      "children": [
        4,
        5,
        6
      ],
      "name": "_0"
    },
    {
      "mesh": 0,
      "name": "Object_4"
    },
    {
      "mesh": 1,
      "name": "Object_5"
    },
    {
      "mesh": 2,
      "name": "Object_6"
    }
  ],
  "samplers": [
    {
      "magFilter": 9729,
      "minFilter": 9987,
      "wrapS": 10497,
      "wrapT": 10497
    }
  ],
  "scene": 0,
  "scenes": [
    {
      "name": "Sketchfab_Scene",
      "nodes": [
        0
      ]
    }
  ],
  "textures": [
    {
      "sampler": 0,
      "source": 0
    },
    {
      "sampler": 0,
      "source": 1
    },
    {
      "sampler": 0,
      "source": 2
    }
  ]
}
