{
  "accessors": [
    {
      "bufferView": 2,
      "componentType": 5126,
      "count": 65532,
      "max": [
        1.896343469619751,
        3.992778778076172,
        7.172760009765625
      ],
      "min": [
        -1.605449914932251,
        -4.163455963134766,
        -5.806779861450195
      ],
      "type": "VEC3"
    },
    {
      "bufferView": 2,
      "byteOffset": 786384,
      "componentType": 5126,
      "count": 65532,
      "max": [
        0.9999953508377075,
        0.9999106526374817,
        0.9999098181724548
      ],
      "min": [
        -0.9999995827674866,
        -0.9999921917915344,
        -0.9993499517440796
      ],
      "type": "VEC3"
    },
    {
      "bufferView": 1,
      "componentType": 5126,
      "count": 65532,
      "max": [
        0.9980369806289673,
        0.9950777888298035
      ],
      "min": [
        0.0009765625,
        0.0019887282978743315
      ],
      "type": "VEC2"
    },
    {
      "bufferView": 0,
      "componentType": 5125,
      "count": 322680,
      "type": "SCALAR"
    },
    {
      "bufferView": 2,
      "byteOffset": 1572768,
      "componentType": 5126,
      "count": 34564,
      "max": [
        1.6675158739089966,
        3.9671149253845215,
        6.861660003662109
      ],
      "min": [
        -1.605449914932251,
        -4.170073509216309,
        -5.806779861450195
      ],
      "type": "VEC3"
    },
    {
      "bufferView": 2,
      "byteOffset": 1987536,
      "componentType": 5126,
      "count": 34564,
      "max": [
        0.9999890327453613,
        0.999657392501831,
        0.9998775124549866
      ],
      "min": [
        -0.999997615814209,
        -0.9999548196792603,
        -0.9995822310447693
      ],
      "type": "VEC3"
    },
    {
      "bufferView": 1,
      "byteOffset": 524256,
      "componentType": 5126,
      "count": 34564,
      "max": [
        0.9977946281433105,
        0.9990233182907104
      ],
      "min": [
        0.0009765625,
        0.001961786998435855
      ],
      "type": "VEC2"
    },
    {
      "bufferView": 0,
      "byteOffset": 1290720,
      "componentType": 5125,
      "count": 142392,
      "type": "SCALAR"
    }
  ],
  "asset": {
    "extras": {
      "author": "axonite (https://sketchfab.com/axonite)",
      "license": "CC-BY-4.0 (http://creativecommons.org/licenses/by/4.0/)",
      "source": "https://sketchfab.com/3d-models/gingy-the-gingebread-man-b06685621d66438ca3c9fa113c096326",
      "title": "Gingy the gingebread man"
    },
    "generator": "Sketchfab-16.12.0",
    "version": "2.0"
  },
  "bufferViews": [
    {
      "buffer": 0,
      "byteLength": 1860288,
      "name": "floatBufferViews",
      "target": 34963
    },
    {
      "buffer": 0,
      "byteLength": 800768,
      "byteOffset": 1860288,
      "byteStride": 8,
      "name": "floatBufferViews",
      "target": 34962
    },
    {
      "buffer": 0,
      "byteLength": 2402304,
      "byteOffset": 2661056,
      "byteStride": 12,
      "name": "floatBufferViews",
      "target": 34962
    }
  ],
  "buffers": [
    {
      "byteLength": 5063360,
      "uri": "scene.bin"
    }
  ],
  "extensionsUsed": [
    "KHR_materials_unlit"
  ],
  "images": [
    {
      "uri": "textures/gingy_u1_v1_baseColor.jpeg"
    }
  ],
  "materials": [
    {
      "doubleSided": true,
      "extensions": {
        "KHR_materials_unlit": {}
      },
      "name": "gingy_u1_v1",
      "pbrMetallicRoughness": {
        "baseColorTexture": {
          "index": 0
        },
        "metallicFactor": 0.0
      }
    }
  ],
  "meshes": [
    {
      "name": "gingy_gingy_u1_v1_0",
      "primitives": [
        {
          "attributes": {
            "NORMAL": 1,
            "POSITION": 0,
            "TEXCOORD_0": 2
          },
          "indices": 3,
          "material": 0,
          "mode": 4
        }
      ]
    },
    {
      "name": "gingy_gingy_u1_v1_0",
      "primitives": [
        {
          "attributes": {
            "NORMAL": 5,
            "POSITION": 4,
            "TEXCOORD_0": 6
          },
          "indices": 7,
          "material": 0,
          "mode": 4
        }
      ]
    }
  ],
  "nodes": [
    {
      "children": [
        1
      ],
      "matrix": [
        0.9927096366882324,
        0.09397682547569274,
        0.07547160983085635,
        0.0,
        0.06732125580310822,
        0.08707088232040427,
        -0.9939247965812683,
        0.0,
        -0.0999772772192955,
        0.9917595386505127,
        0.08010946959257148,
        0.0,
        0.0,
        0.0,
        0.0,
        1.0
      ],
      "name": "Sketchfab_model"
    },
    {
      "children": [
        2
      ],
      "matrix": [
        0.009999999776482582,
        0.0,
        0.0,
        0.0,
        0.0,
        0.0,
        0.009999999776482582,
        0.0,
        0.0,
        -0.009999999776482582,
        0.0,
        0.0,
        0.0,
        0.0,
        0.0,
        1.0
      ],
      "name": "gingy.fbx"
    },
    {
      "children": [
        3
      ],
      "name": "RootNode"
    },
    {
      "children": [
        4,
        5
      ],
      "matrix": [
        7.549789959870878e-06,
        1.1102230246251565e-14,
        99.99999999999972,
        0.0,
        99.99999999999962,
        -4.371139006309477e-06,
        -7.549789954319763e-06,
        0.0,
        4.371139006309477e-06,
        99.99999999999991,
        -3.552713678800501e-13,
        0.0,
        0.0,
        0.0,
        0.0,
        1.0
      ],
      "name": "gingy"
    },
    {
      "mesh": 0,
      "name": "gingy_gingy_u1_v1_0"
    },
    {
      "mesh": 1,
      "name": "gingy_gingy_u1_v1_0"
    }
  ],
  "samplers": [
    {
      "magFilter": 9729,
      "minFilter": 9987,
      "wrapS": 10497,
      "wrapT": 10497
    }
  ],
  "scene": 0,
  "scenes": [
    {
      "name": "Sketchfab_Scene",
      "nodes": [
        0
      ]
    }
  ],
  "textures": [
    {
      "sampler": 0,
      "source": 0
    }
  ]
}
